<?xml version="1.0" standalone="no"?><svg xmlns:xlink="http://www.w3.org/1999/xlink" xmlns="http://www.w3.org/2000/svg" viewBox="0 0 1000 700.0108859960618" preserveAspectRatio="xMaxYMax slice"><g transform="scale(1.3779741850316176)"><rect x="0" y="0" width="725.7142857142857" height="508" fill="#ffffff"/><circle cx="36.285000000000004" cy="36.285000000000004" r="7.255" fill="#859bb9"/><circle cx="108.85499999999999" cy="36.285000000000004" r="7.255" fill="#e3e8ef"/><circle cx="181.42499999999998" cy="36.285000000000004" r="7.255" fill="#e4e9f0"/><circle cx="253.995" cy="36.285000000000004" r="7.255" fill="#999999"/><circle cx="326.565" cy="36.285000000000004" r="7.255" fill="#617ea4"/><circle cx="399.145" cy="36.285000000000004" r="7.255" fill="#383838"/><circle cx="471.715" cy="36.285000000000004" r="7.255" fill="#e9edf2"/><circle cx="544.285" cy="36.285000000000004" r="7.255" fill="#757575"/><circle cx="616.855" cy="36.285000000000004" r="7.255" fill="#d9d9d9"/><circle cx="689.425" cy="36.285000000000004" r="7.255" fill="#7b93b3"/><circle cx="36.285000000000004" cy="108.85499999999999" r="7.255" fill="#d4d4d4"/><circle cx="108.85499999999999" cy="108.85499999999999" r="7.255" fill="#b9b9b9"/><circle cx="181.42499999999998" cy="108.85499999999999" r="7.255" fill="#e5e9f0"/><circle cx="253.995" cy="108.85499999999999" r="7.255" fill="#8da2bd"/><circle cx="326.565" cy="108.85499999999999" r="7.255" fill="#8b8b8b"/><circle cx="399.145" cy="108.85499999999999" r="7.255" fill="#eef1f5"/><circle cx="471.715" cy="108.85499999999999" r="7.255" fill="#e3e8ef"/><circle cx="544.285" cy="108.85499999999999" r="7.255" fill="#748daf"/><circle cx="616.855" cy="108.85499999999999" r="7.255" fill="#7a7a7a"/><circle cx="689.425" cy="108.85499999999999" r="7.255" fill="#7a7a7a"/><circle cx="36.285000000000004" cy="181.42499999999998" r="7.255" fill="#dee4ec"/><circle cx="108.85499999999999" cy="181.42499999999998" r="7.255" fill="#c7c7c7"/><circle cx="181.42499999999998" cy="181.42499999999998" r="7.255" fill="#7e7e7e"/><circle cx="253.995" cy="181.42499999999998" r="7.255" fill="#51719b"/><circle cx="326.565" cy="181.42499999999998" r="7.255" fill="#dbdbdb"/><circle cx="399.145" cy="181.42499999999998" r="7.255" fill="#070707"/><circle cx="471.715" cy="181.42499999999998" r="7.255" fill="#5f7ca3"/><circle cx="544.285" cy="181.42499999999998" r="7.255" fill="#9caec6"/><circle cx="616.855" cy="181.42499999999998" r="7.255" fill="#1f487e"/><circle cx="689.425" cy="181.42499999999998" r="7.255" fill="#8ea2be"/><circle cx="36.285000000000004" cy="253.995" r="7.255" fill="#5e7ba2"/><circle cx="108.85499999999999" cy="253.995" r="7.255" fill="#426592"/><circle cx="181.42499999999998" cy="253.995" r="7.255" fill="#d4dce6"/><circle cx="253.995" cy="253.995" r="7.255" fill="#2a2a2a"/><circle cx="326.565" cy="253.995" r="7.255" fill="#999999"/><circle cx="399.145" cy="253.995" r="7.255" fill="#b9c6d7"/><circle cx="471.715" cy="253.995" r="7.255" fill="#3f6290"/><circle cx="544.285" cy="253.995" r="7.255" fill="#afbdd1"/><circle cx="616.855" cy="253.995" r="7.255" fill="#9c9c9c"/><circle cx="689.425" cy="253.995" r="7.255" fill="#f9fafc"/><circle cx="36.285000000000004" cy="326.565" r="7.255" fill="#e6ebf1"/><circle cx="108.85499999999999" cy="326.565" r="7.255" fill="#bfbfbf"/><circle cx="181.42499999999998" cy="326.565" r="7.255" fill="#b6b6b6"/><circle cx="253.995" cy="326.565" r="7.255" fill="#e2e7ee"/><circle cx="326.565" cy="326.565" r="7.255" fill="#ccd6e2"/><circle cx="399.145" cy="326.565" r="7.255" fill="#b5c2d4"/><circle cx="471.715" cy="326.565" r="7.255" fill="#95a8c2"/><circle cx="544.285" cy="326.565" r="7.255" fill="#406391"/><circle cx="616.855" cy="326.565" r="7.255" fill="#f1f1f1"/><circle cx="689.425" cy="326.565" r="7.255" fill="#828282"/><circle cx="36.285000000000004" cy="399.145" r="7.255" fill="#2e5486"/><circle cx="108.85499999999999" cy="399.145" r="7.255" fill="#839ab8"/><circle cx="181.42499999999998" cy="399.145" r="7.255" fill="#0c0c0c"/><circle cx="253.995" cy="399.145" r="7.255" fill="#224a7f"/><circle cx="326.565" cy="399.145" r="7.255" fill="#f1f1f1"/><circle cx="399.145" cy="399.145" r="7.255" fill="#244b80"/><circle cx="471.715" cy="399.145" r="7.255" fill="#292929"/><circle cx="544.285" cy="399.145" r="7.255" fill="#748daf"/><circle cx="616.855" cy="399.145" r="7.255" fill="#8b8b8b"/><circle cx="689.425" cy="399.145" r="7.255" fill="#d1d1d1"/><circle cx="36.285000000000004" cy="471.715" r="7.255" fill="#c3c3c3"/><circle cx="108.85499999999999" cy="471.715" r="7.255" fill="#e1e1e1"/><circle cx="181.42499999999998" cy="471.715" r="7.255" fill="#c1ccdb"/><circle cx="253.995" cy="471.715" r="7.255" fill="#e5eaf0"/><circle cx="326.565" cy="471.715" r="7.255" fill="#121212"/><circle cx="399.145" cy="471.715" r="7.255" fill="#626262"/><circle cx="471.715" cy="471.715" r="7.255" fill="#686868"/><circle cx="544.285" cy="471.715" r="7.255" fill="#b2c0d3"/><circle cx="616.855" cy="471.715" r="7.255" fill="#1d467d"/><circle cx="689.425" cy="471.715" r="7.255" fill="#21497f"/></g></svg>