<?xml version="1.0" standalone="no"?><svg xmlns:xlink="http://www.w3.org/1999/xlink" xmlns="http://www.w3.org/2000/svg" viewBox="0 0 1000 700.0108859960618" preserveAspectRatio="xMaxYMax slice"><g transform="scale(1.3779741850316176)"><rect x="0" y="0" width="725.7142857142857" height="508" fill="#ffffff"/><rect x="0" y="0" width="72.57142857142857" height="72.57142857142857" fill="#ffffff"/><g transform="translate(0,0) scale(1.8145) rotate(0)"><path d="M10 0L20 10L10 20L0 10L10 0Z" fill="#ffabbf"/></g><g transform="translate(36.29,0) scale(1.8145) rotate(0)"><path d="M10 0L20 10L10 20L0 10L10 0Z" fill="#ff9cb4"/></g><g transform="translate(0,36.29) scale(1.8145) rotate(0)"><path d="M10 0L20 10L10 20L0 10L10 0Z" fill="#4464e7"/></g><rect x="72.57142857142857" y="0" width="72.57142857142857" height="72.57142857142857" fill="#ffffff"/><g transform="translate(108.86,0) scale(1.8145) rotate(0)"><path d="M10 0L20 10L10 20L0 10L10 0Z" fill="#ccd4f8"/></g><g transform="translate(508,0) scale(3.6285) rotate(0)"><path d="M10 0L20 10L10 20L0 10L10 0Z" fill="#2348e2"/></g><rect x="508" y="72.57142857142857" width="72.57142857142857" height="72.57142857142857" fill="#ffffff"/><g transform="translate(508,72.57) scale(1.8145) rotate(0)"><path d="M10 0L20 10L10 20L0 10L10 0Z" fill="#ffeff3"/></g><g transform="translate(544.29,72.57) scale(1.8145) rotate(0)"><path d="M10 0L20 10L10 20L0 10L10 0Z" fill="#fffefe"/></g><g transform="translate(72.57,145.14) scale(3.6285) rotate(0)"><path d="M10 0L20 10L10 20L0 10L10 0Z" fill="#93a5f1"/></g><g transform="translate(290.29,145.14) scale(3.6285) rotate(0)"><path d="M10 0L20 10L10 20L0 10L10 0Z" fill="#eaeefc"/></g><rect x="217.71428571428572" y="217.71428571428572" width="72.57142857142857" height="72.57142857142857" fill="#ffffff"/><g transform="translate(435.43,217.71) scale(3.6285) rotate(0)"><path d="M10 0L20 10L10 20L0 10L10 0Z" fill="#ff678b"/></g><g transform="translate(508,217.71) scale(3.6285) rotate(0)"><path d="M10 0L20 10L10 20L0 10L10 0Z" fill="#acbaf4"/></g><g transform="translate(217.71,290.29) scale(3.6285) rotate(0)"><path d="M10 0L20 10L10 20L0 10L10 0Z" fill="#3f60e6"/></g><rect x="290.2857142857143" y="290.2857142857143" width="72.57142857142857" height="72.57142857142857" fill="#ffffff"/><g transform="translate(290.29,326.57) scale(1.8145) rotate(0)"><path d="M10 0L20 10L10 20L0 10L10 0Z" fill="#ff6e90"/></g><g transform="translate(326.57,326.57) scale(1.8145) rotate(0)"><path d="M10 0L20 10L10 20L0 10L10 0Z" fill="#e5e9fc"/></g><rect x="580.5714285714286" y="290.2857142857143" width="72.57142857142857" height="72.57142857142857" fill="#ffffff"/><g transform="translate(580.57,326.57) scale(1.8145) rotate(0)"><path d="M10 0L20 10L10 20L0 10L10 0Z" fill="#a8b7f4"/></g><g transform="translate(616.86,326.57) scale(1.8145) rotate(0)"><path d="M10 0L20 10L10 20L0 10L10 0Z" fill="#eff2fd"/></g><rect x="0" y="362.85714285714283" width="72.57142857142857" height="72.57142857142857" fill="#ffffff"/><g transform="translate(36.29,399.14) scale(1.8145) rotate(0)"><path d="M10 0L20 10L10 20L0 10L10 0Z" fill="#ffdce4"/></g><rect x="217.71428571428572" y="435.42857142857144" width="72.57142857142857" height="72.57142857142857" fill="#ffffff"/><g transform="translate(254,435.43) scale(1.8145) rotate(0)"><path d="M10 0L20 10L10 20L0 10L10 0Z" fill="#3658e5"/></g><g transform="translate(217.71,471.71) scale(1.8145) rotate(0)"><path d="M10 0L20 10L10 20L0 10L10 0Z" fill="#ff7394"/></g><g transform="translate(653.14,435.43) scale(3.6285) rotate(0)"><path d="M10 0L20 10L10 20L0 10L10 0Z" fill="#ffa9be"/></g></g></svg>